PathFileType	3	(X/Y/Z)	D:\VICON_DB\Goncalves\Pilot01\09-03-2026\walking_03.trc
DataRate	CameraRate	NumFrames	NumMarkers	Units	OrigDataRate	OrigDataStartFrame	OrigNumFrames
200.0	200.0	12	34	mm	200.0	753	1504	
Frame#	Time	LASI			RASI			LPSI			RPSI			LTHI			LTHAP			LTHAD			LKNE			LKNM			LTIB			LTIAP			LTIAD			LANK			LMED			LHEE			LTOE			LFMH			LSMH			LVMH			RTHI			RTHAP			RTHAD			RKNE			RKNM			RTIB			RTIAP			RTIAD			RANK			RMED			RHEE			RTOE			RFMH			RSMH			RVMH			
		X1	Y1	Z1	X2	Y2	Z2	X3	Y3	Z3	X4	Y4	Z4	X5	Y5	Z5	X6	Y6	Z6	X7	Y7	Z7	X8	Y8	Z8	X9	Y9	Z9	X10	Y10	Z10	X11	Y11	Z11	X12	Y12	Z12	X13	Y13	Z13	X14	Y14	Z14	X15	Y15	Z15	X16	Y16	Z16	X17	Y17	Z17	X18	Y18	Z18	X19	Y19	Z19	X20	Y20	Z20	X21	Y21	Z21	X22	Y22	Z22	X23	Y23	Z23	X24	Y24	Z24	X25	Y25	Z25	X26	Y26	Z26	X27	Y27	Z27	X28	Y28	Z28	X29	Y29	Z29	X30	Y30	Z30	X31	Y31	Z31	X32	Y32	Z32	X33	Y33	Z33	X34	Y34	Z34	
753	3.76	76.748543	862.75916	364.24963	337.86691	851.89911	382.37469	156.53162	907.69043	569.67261	219.55954	901.32062	572.97821	66.279907	695.24304	298.14511	40.217583	749.42786	340.45428	35.839184	623.04987	298.06314	68.105736	468.99866	269.97504				60.079575	271.10059	254.5327	117.51965	360.66772	221.81261	95.002861	255.28079	213.51889	95.127281	64.555595	237.08662				145.26302	54.701351	286.67453	128.47182	73.172852	161.06316	163.00597	52.765106	108.29787				84.607224	29.264696	111.6819	363.32812	573.74048	465.31189	354.7612	696.13025	409.70001	338.85944	602.57166	398.42429	345.75345	447.61072	530.44141				350.5311	293.58087	658.6712	305.25284	305.02701	589.10565	301.01953	246.6969	648.33191	310.55682	142.79547	841.89075				267.46439	169.6792	866.6424	291.33716	88.259567	770.78656	255.24724	45.496185	750.52631				324.98572	23.191259	780.41998
754	3.765	75.591293	863.88873	356.94046	336.55099	851.92834	374.53299	156.19357	908.5462	562.25238	219.2428	901.80194	565.33148	65.452934	696.04138	291.37338	39.316833	750.39539	333.50201	35.109741	623.77313	291.42474	67.518272	469.3739	263.89841				59.782616	271.0939	250.5385	117.25818	360.35687	216.81494	94.862419	254.7802	209.92416	95.156464	64.433853	236.24464				145.14999	55.151947	286.08035	128.68892	72.16272	160.14151	163.28369	51.102577	107.58809				84.603043	27.84734	110.95912	362.91183	573.25354	455.41013	353.78445	696.11755	400.89481	338.31873	602.66144	388.78915	345.63449	446.68112	519.45996				350.51889	294.99457	649.56934	305.73703	304.84152	579.45428	301.55356	247.495	639.52539	310.30624	147.25845	835.03729				267.00024	175.1236	858.31061	291.32245	89.450256	766.32983	254.99944	45.857201	748.52832				324.43683	24.794193	779.18311
755	3.77	74.427155	865.0238	349.68167	335.22101	852.00299	366.7619	155.88635	909.39325	554.90088	218.95573	902.28333	557.76099	64.555649	696.78894	284.66031	38.357178	751.33032	326.61197	34.367386	624.42578	284.91168	66.938004	469.67755	258.01263				59.502151	271.05576	246.6761	117.02966	360.00458	212.01831	94.764	254.26424	206.48596	95.202667	64.34021	235.48019				145.0437	55.565639	285.54739	128.9269	71.289894	159.33139	163.5679	49.655022	106.96749				84.605606	26.653063	110.29312	362.5224	572.8457	445.49478	352.84293	696.17987	392.10373	337.80975	602.84045	379.15424	345.53052	445.80457	508.37738				350.52292	296.40726	640.18884	306.23831	304.70178	569.55273	302.10181	248.30521	630.40936	309.9996	151.68407	827.71307				266.48795	180.49503	849.44537	291.22852	90.67981	761.53918	254.73457	46.338902	746.22205				323.87634	26.600224	777.63538
756	3.775	73.260948	866.15039	342.47763	333.88947	852.12366	359.07175	155.60333	910.22528	547.62341	218.69258	902.76202	550.27643	63.590385	697.46869	278.00034	37.344364	752.21967	319.7793	33.618698	624.99561	278.52841	66.369728	469.91034	252.31844				59.242462	270.98795	242.9523	116.83652	359.61307	207.42728	94.70845	253.73521	203.20532	95.260246	64.270538	234.7942				144.94376	55.942745	285.07346	129.17325	70.5457	158.62752	163.84648	48.412033	106.42742				84.609444	25.664814	109.68907	362.15097	572.5238	435.58298	351.93771	696.32001	383.34158	337.32605	603.1131	369.5376	345.43088	444.99176	497.2103				350.53543	297.80554	630.53821	306.74039	304.60852	559.41144	302.64609	249.12357	620.99799	309.63681	156.06146	819.92792				265.93091	185.7764	840.0686	291.06543	91.972282	756.40247	254.46736	46.960434	743.56091				323.31183	28.617111	775.7356
757	3.78	72.098259	867.25745	335.33154	332.56915	852.29248	351.47052	155.33795	911.03876	540.42371	218.44724	903.2373	542.88531	62.562122	698.06744	271.39081	36.286572	753.05414	313.00186	32.86956	625.4751	272.27914	65.816483	470.07529	246.81651				59.006134	270.8938	239.37405	116.67794	359.18661	203.045	94.694046	253.19699	200.0826	95.323082	64.220497	234.18443				144.84813	56.285233	284.65579	129.4174	69.919518	158.0231	164.11311	47.35878	105.96053				84.611786	24.863132	109.15009	361.78772	572.29321	425.68689	351.06805	696.5415	374.62112	336.85782	603.48383	359.9538	345.32513	444.25381	485.97122				350.5473	299.17838	620.62561	307.22607	304.5647	549.04175	303.16696	249.9489	611.30707	309.21649	160.38397	811.69733				265.33121	190.95363	830.20892	290.84479	93.35154	750.90625	254.21443	47.738201	740.49615				322.75293	30.848166	773.43964
758	3.785	70.945648	868.33777	328.24561	331.27286	852.51233	343.96332	155.08383	911.83289	533.30432	218.21361	903.71063	535.59277	61.478485	698.57617	264.83295	35.194313	753.82806	306.27997	32.125233	625.86157	266.1676	65.279503	470.17642	241.50798				58.794029	270.77682	235.94844	116.54951	358.73077	198.87308	94.716385	252.65378	197.11752	95.385399	64.185669	233.64667				144.75452	56.596039	284.29083	129.65044	69.399673	157.51025	164.36438	46.477585	105.56003				84.610641	24.226742	108.67745	361.42249	572.15753	415.81354	350.23135	696.84772	365.9527	336.39218	603.95721	350.4133	345.20401	443.60168	474.66843				350.54874	300.51746	610.45874	307.67841	304.57489	538.45514	303.64444	250.78291	601.35327	308.73669	164.64694	803.04114				264.6893	196.0136	819.90222	290.57858	94.838501	745.03339	253.99304	48.68412	736.97656				322.21115	33.290455	770.69897
759	3.79	69.810707	869.38794	321.22113	330.01291	852.78754	336.5528	154.83536	912.60974	526.26678	217.98584	904.18524	528.40198	60.349545	698.99066	258.33139	34.080204	754.53992	299.61591	31.390299	626.15674	260.19693	64.758286	470.21841	236.39493				58.605103	270.63998	232.68246	116.44345	358.25122	194.91141	94.768059	252.10944	194.30899	95.442329	64.161766	233.1761				144.66125	56.878471	283.97443	129.86469	68.97403	157.08055	164.5966	45.749641	105.21906				84.603554	23.733269	108.27072	361.04559	572.11957	405.96454	349.42365	697.24225	357.34396	335.91412	604.53839	340.92194	345.06	443.04642	463.30624				350.5296	301.81857	600.04486	308.08087	304.64453	527.66284	304.0593	251.6301	591.15265	308.19473	168.84534	793.98206				264.00372	200.94217	809.19153	290.27826	96.448746	738.76208	253.8197	49.804157	732.94781				321.69937	35.933311	767.4585
760	3.795	68.701958	870.40839	314.25842	328.80084	853.12274	329.24048	154.58763	913.37402	519.31104	217.75847	904.66614	521.31335	59.187469	699.31116	251.89412	32.958286	755.19141	293.01392	30.668535	626.36658	254.36955	64.250893	470.20636	231.48012				58.436348	270.48538	229.58266	116.34961	357.75323	191.15836	94.838943	251.56674	191.65533	95.490143	64.144768	232.76793				144.5676	57.135799	283.70193	130.05414	68.630508	156.72546	164.80423	45.156273	104.93036				84.587608	23.360197	107.92796	360.64859	572.18256	396.13721	348.64005	697.7287	348.79965	335.4075	605.23224	331.48117	344.88742	442.59763	451.88556				350.47983	303.08096	589.39081	308.41791	304.77905	516.67517	304.39359	252.49719	580.72034	307.58856	172.97096	784.54376				263.27176	205.72194	798.12659	289.95575	98.19162	732.06464	253.70872	51.097527	728.35309				321.23062	38.757442	763.65656
761	3.8	67.628662	871.40271	307.35718	327.64716	853.52264	322.02737	154.33652	914.13245	512.43573	217.52644	905.15991	514.32581	58.00602	699.54156	245.5314	31.84301	755.78723	286.47971	29.962664	626.49988	248.68761	63.754169	470.1456	226.76672				58.282898	270.31421	226.65471	116.25642	357.24139	187.61076	94.916687	251.02725	189.15419	95.526215	64.13105	232.41718				144.47345	57.37117	283.46823	130.21439	68.357513	156.43645	164.98106	44.679493	104.68652				84.56002	23.085918	107.64607	360.22485	572.34955	386.32532	347.87521	698.31036	340.32153	334.85617	606.04407	322.08856	344.68219	442.26282	440.40451				350.39001	304.30643	578.50342	308.67514	304.98383	505.50143	304.63171	253.39204	570.06989	306.91684	177.01118	774.75037				262.48917	210.33073	786.76373	289.62344	100.07	724.90863	253.67078	52.556614	723.13226				320.81671	41.734615	759.22491
762	3.805	66.60041	872.37732	300.51663	326.56085	853.99188	314.914	154.07867	914.89368	505.63855	217.2852	905.67407	507.43591	56.820011	699.68958	239.25534	30.748276	756.33441	280.02011	29.274126	626.56805	243.15283	63.264057	470.04169	222.25763				58.13842	270.12732	223.90298	116.15182	356.7193	184.26366	94.987854	250.49188	186.8029	95.548958	64.117401	232.11855				144.37915	57.587582	283.2684	130.34296	68.144089	156.20493	165.12244	44.302067	104.48061				84.518913	22.890762	107.42094	359.77008	572.62457	376.52045	347.12399	698.99066	331.90872	334.24567	606.97809	312.7395	344.44205	442.04767	428.86008				350.25168	305.49811	567.38916	308.83957	305.26358	494.14868	304.76132	254.32253	559.21283	306.17929	180.94864	764.6261				261.65131	214.741	775.16406	289.29111	102.07963	717.25787	253.71158	54.16758	717.22375				320.46783	44.827934	754.09009
763	3.81	65.62677	873.34045	293.73569	325.54929	854.53461	307.89935	153.81139	915.66736	498.9155	217.03058	906.21722	500.63901	55.644566	699.76489	233.0788	29.686827	756.84155	273.64258	28.603008	626.58356	237.76662	62.775917	469.90018	217.95505				57.99564	269.92551	221.33031	116.02411	356.19031	181.11047	95.039146	249.96111	184.5988	95.557648	64.101234	231.86649				144.2852	57.787907	283.09753	130.43877	67.980072	156.02229	165.22702	44.00758	104.30669				84.463539	22.757553	107.24774	359.28287	573.01129	366.71323	346.38193	699.77252	323.55798	333.5639	608.03851	303.42792	344.16714	441.95676	417.24942				350.05737	306.66028	556.05524	308.90036	305.6225	482.62305	304.77322	255.29605	548.15863	305.37711	184.76115	754.19489				260.7536	218.92032	763.38983	288.96289	104.20834	709.07495	253.83076	55.911171	710.56635				320.19174	47.992805	748.1748
764	3.815	64.716782	874.30115	287.01306	324.61737	855.15479	300.98062	153.53235	916.46362	492.26178	216.759	906.79803	493.92902	54.494251	699.7796	227.01443	28.669649	757.31763	267.35419	27.948181	626.55872	232.52998	62.284847	469.72696	213.86006				57.846859	269.70999	218.93776	115.8627	355.6575	178.14316	95.058281	249.43547	182.53911	95.552483	64.080803	231.65567				144.19228	57.974773	282.95117	130.50177	67.856262	155.8802	165.29674	43.780727	104.15988				84.394028	22.671618	107.12108	358.76447	573.51392	356.89471	345.64609	700.65887	315.26443	332.80225	609.22809	294.14761	343.8598	441.99417	405.57095				349.80103	307.79794	544.51074	308.84982	306.06396	470.93069	304.66153	256.3183	536.91571	304.51303	188.4213	743.47888				259.79282	222.83344	751.50049	288.63748	106.43694	700.32349	254.02094	57.763554	703.10138				319.99393	51.178822	741.40094
